<svg
        width="171"
        height="171"
        viewBox="0 0 171 171"
        fill="none"
        xmlns="http://www.w3.org/2000/svg"
>
    <path
            d="M159.38 11.6304C150.728 2.9793 139.135 0 125.933 0H45.0773C31.8802 0 20.2816 2.9793 11.6305 11.6304C2.97932 20.2816 0 31.8749 0 45.0773V125.933C0 139.13 2.97932 150.728 11.6305 159.38C20.2816 168.031 31.8749 171.01 45.0773 171.01H125.933C139.13 171.01 150.728 168.031 159.38 159.38C168.031 150.728 171.01 139.135 171.01 125.933V45.0719C171.01 31.8748 168.031 20.2816 159.38 11.6304Z"
            fill="black"
    />
    <path
            d="M117.527 59H43.6807L62.1284 71.6807H117.527C119.682 71.6807 121.443 73.4419 121.443 75.5967V85.0589L134.124 93.7751V75.6037C134.124 66.4661 126.657 59 117.527 59Z"
            fill="white"
    />
    <path
            d="M78.7247 112.789H152.571L134.123 100.109H78.7247C76.5767 100.109 74.8086 98.3406 74.8086 96.1857V86.7236L62.1279 78.0073V96.1788C62.1279 105.337 69.5802 112.789 78.7247 112.789Z"
            fill="white"
    />
    <path d="M43.6807 78.0142H31V112.789H43.6807V78.0142Z" fill="white"/>
    <path
            d="M31 59V69.8642L43.2317 78.2696L43.6807 78.0141V59H31Z"
            fill="white"
    />
</svg>